<mxfile host="Electron" agent="Mozilla/5.0 (Windows NT 10.0; Win64; x64) AppleWebKit/537.36 (KHTML, like Gecko) draw.io/28.1.2 Chrome/138.0.7204.243 Electron/37.4.0 Safari/537.36" version="28.1.2">
  <diagram name="หน้า-1" id="O3pHPFC4KNmWFplvTnPq">
    <mxGraphModel dx="2084" dy="1252" grid="1" gridSize="10" guides="1" tooltips="1" connect="1" arrows="1" fold="1" page="1" pageScale="1" pageWidth="827" pageHeight="1169" math="0" shadow="0">
      <root>
        <mxCell id="0" />
        <mxCell id="1" parent="0" />
        <mxCell id="wF_m7cPFY8NTbSpeQ1_s-6" value="" style="edgeStyle=orthogonalEdgeStyle;rounded=0;orthogonalLoop=1;jettySize=auto;html=1;" edge="1" parent="1" source="wF_m7cPFY8NTbSpeQ1_s-4" target="wF_m7cPFY8NTbSpeQ1_s-5">
          <mxGeometry relative="1" as="geometry" />
        </mxCell>
        <mxCell id="wF_m7cPFY8NTbSpeQ1_s-4" value="เริ่มต้น&lt;div&gt;main&lt;/div&gt;" style="ellipse;whiteSpace=wrap;html=1;" vertex="1" parent="1">
          <mxGeometry x="373" y="20" width="81" height="50" as="geometry" />
        </mxCell>
        <mxCell id="wF_m7cPFY8NTbSpeQ1_s-10" value="" style="edgeStyle=orthogonalEdgeStyle;rounded=0;orthogonalLoop=1;jettySize=auto;html=1;" edge="1" parent="1" source="wF_m7cPFY8NTbSpeQ1_s-5" target="wF_m7cPFY8NTbSpeQ1_s-9">
          <mxGeometry relative="1" as="geometry" />
        </mxCell>
        <mxCell id="wF_m7cPFY8NTbSpeQ1_s-5" value="ประกาศตัวแปร/โครงสร้าง" style="whiteSpace=wrap;html=1;" vertex="1" parent="1">
          <mxGeometry x="353.5" y="110" width="120" height="60" as="geometry" />
        </mxCell>
        <mxCell id="wF_m7cPFY8NTbSpeQ1_s-12" value="" style="edgeStyle=orthogonalEdgeStyle;rounded=0;orthogonalLoop=1;jettySize=auto;html=1;" edge="1" parent="1" source="wF_m7cPFY8NTbSpeQ1_s-9" target="wF_m7cPFY8NTbSpeQ1_s-11">
          <mxGeometry relative="1" as="geometry" />
        </mxCell>
        <mxCell id="wF_m7cPFY8NTbSpeQ1_s-9" value="แสดง Enter the details of 3 students :" style="shape=parallelogram;perimeter=parallelogramPerimeter;whiteSpace=wrap;html=1;fixedSize=1;" vertex="1" parent="1">
          <mxGeometry x="300" y="210" width="226.5" height="60" as="geometry" />
        </mxCell>
        <mxCell id="wF_m7cPFY8NTbSpeQ1_s-14" value="" style="edgeStyle=orthogonalEdgeStyle;rounded=0;orthogonalLoop=1;jettySize=auto;html=1;" edge="1" parent="1" source="wF_m7cPFY8NTbSpeQ1_s-11" target="wF_m7cPFY8NTbSpeQ1_s-13">
          <mxGeometry relative="1" as="geometry" />
        </mxCell>
        <mxCell id="wF_m7cPFY8NTbSpeQ1_s-11" value="i = 0" style="whiteSpace=wrap;html=1;" vertex="1" parent="1">
          <mxGeometry x="359.88" y="330" width="106.75" height="50" as="geometry" />
        </mxCell>
        <mxCell id="wF_m7cPFY8NTbSpeQ1_s-16" value="" style="edgeStyle=orthogonalEdgeStyle;rounded=0;orthogonalLoop=1;jettySize=auto;html=1;" edge="1" parent="1" source="wF_m7cPFY8NTbSpeQ1_s-13" target="wF_m7cPFY8NTbSpeQ1_s-15">
          <mxGeometry relative="1" as="geometry" />
        </mxCell>
        <mxCell id="wF_m7cPFY8NTbSpeQ1_s-31" value="" style="edgeStyle=orthogonalEdgeStyle;rounded=0;orthogonalLoop=1;jettySize=auto;html=1;" edge="1" parent="1" source="wF_m7cPFY8NTbSpeQ1_s-13" target="wF_m7cPFY8NTbSpeQ1_s-30">
          <mxGeometry relative="1" as="geometry">
            <Array as="points">
              <mxPoint x="600" y="485" />
              <mxPoint x="600" y="1200" />
              <mxPoint x="413" y="1200" />
            </Array>
          </mxGeometry>
        </mxCell>
        <mxCell id="wF_m7cPFY8NTbSpeQ1_s-13" value="i &amp;lt; 3 ?" style="rhombus;whiteSpace=wrap;html=1;" vertex="1" parent="1">
          <mxGeometry x="364.88" y="445" width="96.75" height="80" as="geometry" />
        </mxCell>
        <mxCell id="wF_m7cPFY8NTbSpeQ1_s-20" value="" style="edgeStyle=orthogonalEdgeStyle;rounded=0;orthogonalLoop=1;jettySize=auto;html=1;" edge="1" parent="1" source="wF_m7cPFY8NTbSpeQ1_s-15" target="wF_m7cPFY8NTbSpeQ1_s-19">
          <mxGeometry relative="1" as="geometry" />
        </mxCell>
        <mxCell id="wF_m7cPFY8NTbSpeQ1_s-15" value="รับค่าชื่อ, ID, และคะแนนทั้ง 5 วิชา" style="whiteSpace=wrap;html=1;" vertex="1" parent="1">
          <mxGeometry x="353.255" y="590" width="120" height="60" as="geometry" />
        </mxCell>
        <mxCell id="wF_m7cPFY8NTbSpeQ1_s-22" value="" style="edgeStyle=orthogonalEdgeStyle;rounded=0;orthogonalLoop=1;jettySize=auto;html=1;" edge="1" parent="1" source="wF_m7cPFY8NTbSpeQ1_s-19" target="wF_m7cPFY8NTbSpeQ1_s-21">
          <mxGeometry relative="1" as="geometry" />
        </mxCell>
        <mxCell id="wF_m7cPFY8NTbSpeQ1_s-19" value="เรียกใช้ &lt;code&gt;setGrade&lt;/code&gt;" style="shape=process;whiteSpace=wrap;html=1;backgroundOutline=1;" vertex="1" parent="1">
          <mxGeometry x="353.255" y="720" width="120" height="60" as="geometry" />
        </mxCell>
        <mxCell id="wF_m7cPFY8NTbSpeQ1_s-24" value="" style="edgeStyle=orthogonalEdgeStyle;rounded=0;orthogonalLoop=1;jettySize=auto;html=1;" edge="1" parent="1" source="wF_m7cPFY8NTbSpeQ1_s-21" target="wF_m7cPFY8NTbSpeQ1_s-23">
          <mxGeometry relative="1" as="geometry" />
        </mxCell>
        <mxCell id="wF_m7cPFY8NTbSpeQ1_s-21" value="เรียกใช้ &lt;code&gt;calAverage&lt;/code&gt;" style="shape=process;whiteSpace=wrap;html=1;backgroundOutline=1;" vertex="1" parent="1">
          <mxGeometry x="354.005" y="850" width="120" height="60" as="geometry" />
        </mxCell>
        <mxCell id="wF_m7cPFY8NTbSpeQ1_s-26" value="" style="edgeStyle=orthogonalEdgeStyle;rounded=0;orthogonalLoop=1;jettySize=auto;html=1;" edge="1" parent="1" source="wF_m7cPFY8NTbSpeQ1_s-23" target="wF_m7cPFY8NTbSpeQ1_s-25">
          <mxGeometry relative="1" as="geometry" />
        </mxCell>
        <mxCell id="wF_m7cPFY8NTbSpeQ1_s-23" value="แสดงผลลัพธ์ทั้งหมด (Name, ID, Scores, Grades, Average)" style="shape=parallelogram;perimeter=parallelogramPerimeter;whiteSpace=wrap;html=1;fixedSize=1;" vertex="1" parent="1">
          <mxGeometry x="309.56" y="980" width="207.38" height="60" as="geometry" />
        </mxCell>
        <mxCell id="wF_m7cPFY8NTbSpeQ1_s-27" style="edgeStyle=orthogonalEdgeStyle;rounded=0;orthogonalLoop=1;jettySize=auto;html=1;" edge="1" parent="1" source="wF_m7cPFY8NTbSpeQ1_s-25">
          <mxGeometry relative="1" as="geometry">
            <mxPoint x="413.25" y="300" as="targetPoint" />
            <Array as="points">
              <mxPoint x="260" y="1139" />
              <mxPoint x="260" y="300" />
            </Array>
          </mxGeometry>
        </mxCell>
        <mxCell id="wF_m7cPFY8NTbSpeQ1_s-25" value="i = i + 1" style="whiteSpace=wrap;html=1;" vertex="1" parent="1">
          <mxGeometry x="353.25" y="1109" width="120" height="60" as="geometry" />
        </mxCell>
        <mxCell id="wF_m7cPFY8NTbSpeQ1_s-28" value="True" style="text;html=1;align=center;verticalAlign=middle;resizable=0;points=[];autosize=1;strokeColor=none;fillColor=none;" vertex="1" parent="1">
          <mxGeometry x="415" y="528" width="50" height="30" as="geometry" />
        </mxCell>
        <mxCell id="wF_m7cPFY8NTbSpeQ1_s-30" value="สิ้นสุด" style="ellipse;whiteSpace=wrap;html=1;" vertex="1" parent="1">
          <mxGeometry x="372.75" y="1240" width="81" height="50" as="geometry" />
        </mxCell>
        <mxCell id="wF_m7cPFY8NTbSpeQ1_s-32" value="False" style="text;html=1;align=center;verticalAlign=middle;resizable=0;points=[];autosize=1;strokeColor=none;fillColor=none;" vertex="1" parent="1">
          <mxGeometry x="500" y="500" width="50" height="30" as="geometry" />
        </mxCell>
        <mxCell id="wF_m7cPFY8NTbSpeQ1_s-35" value="" style="edgeStyle=orthogonalEdgeStyle;rounded=0;orthogonalLoop=1;jettySize=auto;html=1;" edge="1" parent="1" source="wF_m7cPFY8NTbSpeQ1_s-33" target="wF_m7cPFY8NTbSpeQ1_s-34">
          <mxGeometry relative="1" as="geometry" />
        </mxCell>
        <mxCell id="wF_m7cPFY8NTbSpeQ1_s-33" value="เริ่มต้น&lt;div&gt;setGrade&lt;/div&gt;" style="ellipse;whiteSpace=wrap;html=1;" vertex="1" parent="1">
          <mxGeometry x="1040" y="20" width="81" height="50" as="geometry" />
        </mxCell>
        <mxCell id="wF_m7cPFY8NTbSpeQ1_s-39" value="" style="edgeStyle=orthogonalEdgeStyle;rounded=0;orthogonalLoop=1;jettySize=auto;html=1;" edge="1" parent="1" source="wF_m7cPFY8NTbSpeQ1_s-34" target="wF_m7cPFY8NTbSpeQ1_s-38">
          <mxGeometry relative="1" as="geometry" />
        </mxCell>
        <mxCell id="wF_m7cPFY8NTbSpeQ1_s-47" value="" style="edgeStyle=orthogonalEdgeStyle;rounded=0;orthogonalLoop=1;jettySize=auto;html=1;" edge="1" parent="1" source="wF_m7cPFY8NTbSpeQ1_s-34" target="wF_m7cPFY8NTbSpeQ1_s-46">
          <mxGeometry relative="1" as="geometry" />
        </mxCell>
        <mxCell id="wF_m7cPFY8NTbSpeQ1_s-34" value="score &amp;gt;= 80" style="rhombus;whiteSpace=wrap;html=1;" vertex="1" parent="1">
          <mxGeometry x="1035.25" y="130" width="90.5" height="80" as="geometry" />
        </mxCell>
        <mxCell id="wF_m7cPFY8NTbSpeQ1_s-85" style="edgeStyle=orthogonalEdgeStyle;rounded=0;orthogonalLoop=1;jettySize=auto;html=1;entryX=1;entryY=0.5;entryDx=0;entryDy=0;" edge="1" parent="1" source="wF_m7cPFY8NTbSpeQ1_s-38" target="wF_m7cPFY8NTbSpeQ1_s-41">
          <mxGeometry relative="1" as="geometry">
            <Array as="points">
              <mxPoint x="1450" y="170" />
              <mxPoint x="1450" y="1205" />
            </Array>
          </mxGeometry>
        </mxCell>
        <mxCell id="wF_m7cPFY8NTbSpeQ1_s-38" value="กำหนด gradeStr = &#39;A&#39;" style="whiteSpace=wrap;html=1;" vertex="1" parent="1">
          <mxGeometry x="1191" y="140" width="139" height="60" as="geometry" />
        </mxCell>
        <mxCell id="wF_m7cPFY8NTbSpeQ1_s-40" value="True" style="text;html=1;align=center;verticalAlign=middle;resizable=0;points=[];autosize=1;strokeColor=none;fillColor=none;" vertex="1" parent="1">
          <mxGeometry x="1125.75" y="140" width="50" height="30" as="geometry" />
        </mxCell>
        <mxCell id="wF_m7cPFY8NTbSpeQ1_s-79" value="" style="edgeStyle=orthogonalEdgeStyle;rounded=0;orthogonalLoop=1;jettySize=auto;html=1;" edge="1" parent="1" source="wF_m7cPFY8NTbSpeQ1_s-41" target="wF_m7cPFY8NTbSpeQ1_s-43">
          <mxGeometry relative="1" as="geometry" />
        </mxCell>
        <mxCell id="wF_m7cPFY8NTbSpeQ1_s-41" value="" style="ellipse;whiteSpace=wrap;html=1;aspect=fixed;" vertex="1" parent="1">
          <mxGeometry x="1065.5" y="1190" width="30" height="30" as="geometry" />
        </mxCell>
        <mxCell id="wF_m7cPFY8NTbSpeQ1_s-43" value="สิ้นสุด" style="ellipse;whiteSpace=wrap;html=1;" vertex="1" parent="1">
          <mxGeometry x="1040" y="1240" width="81" height="50" as="geometry" />
        </mxCell>
        <mxCell id="wF_m7cPFY8NTbSpeQ1_s-49" value="" style="edgeStyle=orthogonalEdgeStyle;rounded=0;orthogonalLoop=1;jettySize=auto;html=1;" edge="1" parent="1" source="wF_m7cPFY8NTbSpeQ1_s-46" target="wF_m7cPFY8NTbSpeQ1_s-48">
          <mxGeometry relative="1" as="geometry" />
        </mxCell>
        <mxCell id="wF_m7cPFY8NTbSpeQ1_s-51" value="" style="edgeStyle=orthogonalEdgeStyle;rounded=0;orthogonalLoop=1;jettySize=auto;html=1;" edge="1" parent="1" source="wF_m7cPFY8NTbSpeQ1_s-46" target="wF_m7cPFY8NTbSpeQ1_s-50">
          <mxGeometry relative="1" as="geometry" />
        </mxCell>
        <mxCell id="wF_m7cPFY8NTbSpeQ1_s-46" value="score &amp;gt;= 75" style="rhombus;whiteSpace=wrap;html=1;" vertex="1" parent="1">
          <mxGeometry x="1035.25" y="270" width="90.5" height="80" as="geometry" />
        </mxCell>
        <mxCell id="wF_m7cPFY8NTbSpeQ1_s-84" style="edgeStyle=orthogonalEdgeStyle;rounded=0;orthogonalLoop=1;jettySize=auto;html=1;entryX=1;entryY=0.5;entryDx=0;entryDy=0;" edge="1" parent="1" source="wF_m7cPFY8NTbSpeQ1_s-48" target="wF_m7cPFY8NTbSpeQ1_s-41">
          <mxGeometry relative="1" as="geometry">
            <Array as="points">
              <mxPoint x="1450" y="310" />
              <mxPoint x="1450" y="1205" />
            </Array>
          </mxGeometry>
        </mxCell>
        <mxCell id="wF_m7cPFY8NTbSpeQ1_s-48" value="กำหนด gradeStr = &#39;B+&#39;" style="whiteSpace=wrap;html=1;" vertex="1" parent="1">
          <mxGeometry x="1191" y="280" width="139" height="60" as="geometry" />
        </mxCell>
        <mxCell id="wF_m7cPFY8NTbSpeQ1_s-53" value="" style="edgeStyle=orthogonalEdgeStyle;rounded=0;orthogonalLoop=1;jettySize=auto;html=1;" edge="1" parent="1" source="wF_m7cPFY8NTbSpeQ1_s-50" target="wF_m7cPFY8NTbSpeQ1_s-52">
          <mxGeometry relative="1" as="geometry" />
        </mxCell>
        <mxCell id="wF_m7cPFY8NTbSpeQ1_s-55" value="" style="edgeStyle=orthogonalEdgeStyle;rounded=0;orthogonalLoop=1;jettySize=auto;html=1;" edge="1" parent="1" source="wF_m7cPFY8NTbSpeQ1_s-50" target="wF_m7cPFY8NTbSpeQ1_s-54">
          <mxGeometry relative="1" as="geometry" />
        </mxCell>
        <mxCell id="wF_m7cPFY8NTbSpeQ1_s-50" value="score &amp;gt;= 70" style="rhombus;whiteSpace=wrap;html=1;" vertex="1" parent="1">
          <mxGeometry x="1035.25" y="410" width="90.5" height="80" as="geometry" />
        </mxCell>
        <mxCell id="wF_m7cPFY8NTbSpeQ1_s-83" style="edgeStyle=orthogonalEdgeStyle;rounded=0;orthogonalLoop=1;jettySize=auto;html=1;entryX=1;entryY=0.5;entryDx=0;entryDy=0;" edge="1" parent="1" source="wF_m7cPFY8NTbSpeQ1_s-52" target="wF_m7cPFY8NTbSpeQ1_s-41">
          <mxGeometry relative="1" as="geometry">
            <Array as="points">
              <mxPoint x="1450" y="450" />
              <mxPoint x="1450" y="1205" />
            </Array>
          </mxGeometry>
        </mxCell>
        <mxCell id="wF_m7cPFY8NTbSpeQ1_s-52" value="กำหนด gradeStr = &#39;B&#39;" style="whiteSpace=wrap;html=1;" vertex="1" parent="1">
          <mxGeometry x="1191" y="420" width="139" height="60" as="geometry" />
        </mxCell>
        <mxCell id="wF_m7cPFY8NTbSpeQ1_s-57" value="" style="edgeStyle=orthogonalEdgeStyle;rounded=0;orthogonalLoop=1;jettySize=auto;html=1;" edge="1" parent="1" source="wF_m7cPFY8NTbSpeQ1_s-54" target="wF_m7cPFY8NTbSpeQ1_s-56">
          <mxGeometry relative="1" as="geometry" />
        </mxCell>
        <mxCell id="wF_m7cPFY8NTbSpeQ1_s-59" value="" style="edgeStyle=orthogonalEdgeStyle;rounded=0;orthogonalLoop=1;jettySize=auto;html=1;" edge="1" parent="1" source="wF_m7cPFY8NTbSpeQ1_s-54" target="wF_m7cPFY8NTbSpeQ1_s-58">
          <mxGeometry relative="1" as="geometry" />
        </mxCell>
        <mxCell id="wF_m7cPFY8NTbSpeQ1_s-54" value="score &amp;gt;= 65" style="rhombus;whiteSpace=wrap;html=1;" vertex="1" parent="1">
          <mxGeometry x="1035.25" y="550" width="90.5" height="80" as="geometry" />
        </mxCell>
        <mxCell id="wF_m7cPFY8NTbSpeQ1_s-82" style="edgeStyle=orthogonalEdgeStyle;rounded=0;orthogonalLoop=1;jettySize=auto;html=1;entryX=1;entryY=0.5;entryDx=0;entryDy=0;" edge="1" parent="1" source="wF_m7cPFY8NTbSpeQ1_s-56" target="wF_m7cPFY8NTbSpeQ1_s-41">
          <mxGeometry relative="1" as="geometry">
            <Array as="points">
              <mxPoint x="1450" y="590" />
              <mxPoint x="1450" y="1205" />
            </Array>
          </mxGeometry>
        </mxCell>
        <mxCell id="wF_m7cPFY8NTbSpeQ1_s-56" value="กำหนด gradeStr = &#39;C+&#39;" style="whiteSpace=wrap;html=1;" vertex="1" parent="1">
          <mxGeometry x="1191" y="560" width="139" height="60" as="geometry" />
        </mxCell>
        <mxCell id="wF_m7cPFY8NTbSpeQ1_s-61" value="" style="edgeStyle=orthogonalEdgeStyle;rounded=0;orthogonalLoop=1;jettySize=auto;html=1;" edge="1" parent="1" source="wF_m7cPFY8NTbSpeQ1_s-58" target="wF_m7cPFY8NTbSpeQ1_s-60">
          <mxGeometry relative="1" as="geometry" />
        </mxCell>
        <mxCell id="wF_m7cPFY8NTbSpeQ1_s-63" value="" style="edgeStyle=orthogonalEdgeStyle;rounded=0;orthogonalLoop=1;jettySize=auto;html=1;" edge="1" parent="1" source="wF_m7cPFY8NTbSpeQ1_s-58" target="wF_m7cPFY8NTbSpeQ1_s-62">
          <mxGeometry relative="1" as="geometry" />
        </mxCell>
        <mxCell id="wF_m7cPFY8NTbSpeQ1_s-58" value="score &amp;gt;= 60" style="rhombus;whiteSpace=wrap;html=1;" vertex="1" parent="1">
          <mxGeometry x="1035.25" y="690" width="90.5" height="80" as="geometry" />
        </mxCell>
        <mxCell id="wF_m7cPFY8NTbSpeQ1_s-81" style="edgeStyle=orthogonalEdgeStyle;rounded=0;orthogonalLoop=1;jettySize=auto;html=1;entryX=1;entryY=0.5;entryDx=0;entryDy=0;" edge="1" parent="1" source="wF_m7cPFY8NTbSpeQ1_s-60" target="wF_m7cPFY8NTbSpeQ1_s-41">
          <mxGeometry relative="1" as="geometry">
            <Array as="points">
              <mxPoint x="1450" y="730" />
              <mxPoint x="1450" y="1205" />
            </Array>
          </mxGeometry>
        </mxCell>
        <mxCell id="wF_m7cPFY8NTbSpeQ1_s-60" value="กำหนด gradeStr = &#39;C&#39;" style="whiteSpace=wrap;html=1;" vertex="1" parent="1">
          <mxGeometry x="1191" y="700" width="139" height="60" as="geometry" />
        </mxCell>
        <mxCell id="wF_m7cPFY8NTbSpeQ1_s-65" value="" style="edgeStyle=orthogonalEdgeStyle;rounded=0;orthogonalLoop=1;jettySize=auto;html=1;" edge="1" parent="1" source="wF_m7cPFY8NTbSpeQ1_s-62" target="wF_m7cPFY8NTbSpeQ1_s-64">
          <mxGeometry relative="1" as="geometry" />
        </mxCell>
        <mxCell id="wF_m7cPFY8NTbSpeQ1_s-67" value="" style="edgeStyle=orthogonalEdgeStyle;rounded=0;orthogonalLoop=1;jettySize=auto;html=1;" edge="1" parent="1" source="wF_m7cPFY8NTbSpeQ1_s-62" target="wF_m7cPFY8NTbSpeQ1_s-66">
          <mxGeometry relative="1" as="geometry" />
        </mxCell>
        <mxCell id="wF_m7cPFY8NTbSpeQ1_s-62" value="score &amp;gt;= 55" style="rhombus;whiteSpace=wrap;html=1;" vertex="1" parent="1">
          <mxGeometry x="1035.25" y="830" width="90.5" height="80" as="geometry" />
        </mxCell>
        <mxCell id="wF_m7cPFY8NTbSpeQ1_s-80" style="edgeStyle=orthogonalEdgeStyle;rounded=0;orthogonalLoop=1;jettySize=auto;html=1;entryX=1;entryY=0.5;entryDx=0;entryDy=0;" edge="1" parent="1" source="wF_m7cPFY8NTbSpeQ1_s-64" target="wF_m7cPFY8NTbSpeQ1_s-41">
          <mxGeometry relative="1" as="geometry">
            <Array as="points">
              <mxPoint x="1450" y="870" />
              <mxPoint x="1450" y="1205" />
            </Array>
          </mxGeometry>
        </mxCell>
        <mxCell id="wF_m7cPFY8NTbSpeQ1_s-64" value="กำหนด gradeStr = &#39;D+&#39;" style="whiteSpace=wrap;html=1;" vertex="1" parent="1">
          <mxGeometry x="1191" y="840" width="139" height="60" as="geometry" />
        </mxCell>
        <mxCell id="wF_m7cPFY8NTbSpeQ1_s-69" value="" style="edgeStyle=orthogonalEdgeStyle;rounded=0;orthogonalLoop=1;jettySize=auto;html=1;" edge="1" parent="1" source="wF_m7cPFY8NTbSpeQ1_s-66" target="wF_m7cPFY8NTbSpeQ1_s-68">
          <mxGeometry relative="1" as="geometry" />
        </mxCell>
        <mxCell id="wF_m7cPFY8NTbSpeQ1_s-71" value="" style="edgeStyle=orthogonalEdgeStyle;rounded=0;orthogonalLoop=1;jettySize=auto;html=1;" edge="1" parent="1" source="wF_m7cPFY8NTbSpeQ1_s-66" target="wF_m7cPFY8NTbSpeQ1_s-70">
          <mxGeometry relative="1" as="geometry" />
        </mxCell>
        <mxCell id="wF_m7cPFY8NTbSpeQ1_s-66" value="score &amp;gt;= 50" style="rhombus;whiteSpace=wrap;html=1;" vertex="1" parent="1">
          <mxGeometry x="1035.25" y="970" width="90.5" height="80" as="geometry" />
        </mxCell>
        <mxCell id="wF_m7cPFY8NTbSpeQ1_s-76" style="edgeStyle=orthogonalEdgeStyle;rounded=0;orthogonalLoop=1;jettySize=auto;html=1;entryX=1;entryY=0.5;entryDx=0;entryDy=0;" edge="1" parent="1" source="wF_m7cPFY8NTbSpeQ1_s-68" target="wF_m7cPFY8NTbSpeQ1_s-41">
          <mxGeometry relative="1" as="geometry">
            <Array as="points">
              <mxPoint x="1450" y="1010" />
              <mxPoint x="1450" y="1205" />
            </Array>
          </mxGeometry>
        </mxCell>
        <mxCell id="wF_m7cPFY8NTbSpeQ1_s-68" value="กำหนด gradeStr = &#39;D&#39;" style="whiteSpace=wrap;html=1;" vertex="1" parent="1">
          <mxGeometry x="1191" y="980" width="139" height="60" as="geometry" />
        </mxCell>
        <mxCell id="wF_m7cPFY8NTbSpeQ1_s-78" value="" style="edgeStyle=orthogonalEdgeStyle;rounded=0;orthogonalLoop=1;jettySize=auto;html=1;" edge="1" parent="1" source="wF_m7cPFY8NTbSpeQ1_s-70" target="wF_m7cPFY8NTbSpeQ1_s-41">
          <mxGeometry relative="1" as="geometry" />
        </mxCell>
        <mxCell id="wF_m7cPFY8NTbSpeQ1_s-70" value="กำหนด gradeStr = &#39;F&#39;" style="whiteSpace=wrap;html=1;" vertex="1" parent="1">
          <mxGeometry x="1020.5" y="1109" width="120" height="60" as="geometry" />
        </mxCell>
        <mxCell id="wF_m7cPFY8NTbSpeQ1_s-86" value="True" style="text;html=1;align=center;verticalAlign=middle;resizable=0;points=[];autosize=1;strokeColor=none;fillColor=none;" vertex="1" parent="1">
          <mxGeometry x="1125.75" y="280" width="50" height="30" as="geometry" />
        </mxCell>
        <mxCell id="wF_m7cPFY8NTbSpeQ1_s-87" value="True" style="text;html=1;align=center;verticalAlign=middle;resizable=0;points=[];autosize=1;strokeColor=none;fillColor=none;" vertex="1" parent="1">
          <mxGeometry x="1125.75" y="420" width="50" height="30" as="geometry" />
        </mxCell>
        <mxCell id="wF_m7cPFY8NTbSpeQ1_s-88" value="True" style="text;html=1;align=center;verticalAlign=middle;resizable=0;points=[];autosize=1;strokeColor=none;fillColor=none;" vertex="1" parent="1">
          <mxGeometry x="1125.75" y="560" width="50" height="30" as="geometry" />
        </mxCell>
        <mxCell id="wF_m7cPFY8NTbSpeQ1_s-89" value="True" style="text;html=1;align=center;verticalAlign=middle;resizable=0;points=[];autosize=1;strokeColor=none;fillColor=none;" vertex="1" parent="1">
          <mxGeometry x="1125.75" y="700" width="50" height="30" as="geometry" />
        </mxCell>
        <mxCell id="wF_m7cPFY8NTbSpeQ1_s-97" value="True" style="text;html=1;align=center;verticalAlign=middle;resizable=0;points=[];autosize=1;strokeColor=none;fillColor=none;" vertex="1" parent="1">
          <mxGeometry x="1125.75" y="840" width="50" height="30" as="geometry" />
        </mxCell>
        <mxCell id="wF_m7cPFY8NTbSpeQ1_s-98" value="True" style="text;html=1;align=center;verticalAlign=middle;resizable=0;points=[];autosize=1;strokeColor=none;fillColor=none;" vertex="1" parent="1">
          <mxGeometry x="1121" y="970" width="50" height="30" as="geometry" />
        </mxCell>
        <mxCell id="wF_m7cPFY8NTbSpeQ1_s-100" value="False" style="text;html=1;align=center;verticalAlign=middle;resizable=0;points=[];autosize=1;strokeColor=none;fillColor=none;" vertex="1" parent="1">
          <mxGeometry x="1015.5" y="220" width="50" height="30" as="geometry" />
        </mxCell>
        <mxCell id="wF_m7cPFY8NTbSpeQ1_s-101" value="False" style="text;html=1;align=center;verticalAlign=middle;resizable=0;points=[];autosize=1;strokeColor=none;fillColor=none;" vertex="1" parent="1">
          <mxGeometry x="1010" y="360" width="50" height="30" as="geometry" />
        </mxCell>
        <mxCell id="wF_m7cPFY8NTbSpeQ1_s-102" value="False" style="text;html=1;align=center;verticalAlign=middle;resizable=0;points=[];autosize=1;strokeColor=none;fillColor=none;" vertex="1" parent="1">
          <mxGeometry x="1010" y="510" width="50" height="30" as="geometry" />
        </mxCell>
        <mxCell id="wF_m7cPFY8NTbSpeQ1_s-103" value="False" style="text;html=1;align=center;verticalAlign=middle;resizable=0;points=[];autosize=1;strokeColor=none;fillColor=none;" vertex="1" parent="1">
          <mxGeometry x="1010" y="650" width="50" height="30" as="geometry" />
        </mxCell>
        <mxCell id="wF_m7cPFY8NTbSpeQ1_s-104" value="False" style="text;html=1;align=center;verticalAlign=middle;resizable=0;points=[];autosize=1;strokeColor=none;fillColor=none;" vertex="1" parent="1">
          <mxGeometry x="1010" y="790" width="50" height="30" as="geometry" />
        </mxCell>
        <mxCell id="wF_m7cPFY8NTbSpeQ1_s-105" value="False" style="text;html=1;align=center;verticalAlign=middle;resizable=0;points=[];autosize=1;strokeColor=none;fillColor=none;" vertex="1" parent="1">
          <mxGeometry x="1010" y="930" width="50" height="30" as="geometry" />
        </mxCell>
        <mxCell id="wF_m7cPFY8NTbSpeQ1_s-106" value="False" style="text;html=1;align=center;verticalAlign=middle;resizable=0;points=[];autosize=1;strokeColor=none;fillColor=none;" vertex="1" parent="1">
          <mxGeometry x="1010" y="1060" width="50" height="30" as="geometry" />
        </mxCell>
        <mxCell id="wF_m7cPFY8NTbSpeQ1_s-109" value="" style="edgeStyle=orthogonalEdgeStyle;rounded=0;orthogonalLoop=1;jettySize=auto;html=1;" edge="1" parent="1" source="wF_m7cPFY8NTbSpeQ1_s-107" target="wF_m7cPFY8NTbSpeQ1_s-108">
          <mxGeometry relative="1" as="geometry" />
        </mxCell>
        <mxCell id="wF_m7cPFY8NTbSpeQ1_s-107" value="เริ่มต้น&lt;div&gt;calAverage&lt;/div&gt;" style="ellipse;whiteSpace=wrap;html=1;" vertex="1" parent="1">
          <mxGeometry x="1710" y="20" width="81" height="50" as="geometry" />
        </mxCell>
        <mxCell id="wF_m7cPFY8NTbSpeQ1_s-111" value="" style="edgeStyle=orthogonalEdgeStyle;rounded=0;orthogonalLoop=1;jettySize=auto;html=1;" edge="1" parent="1" source="wF_m7cPFY8NTbSpeQ1_s-108" target="wF_m7cPFY8NTbSpeQ1_s-110">
          <mxGeometry relative="1" as="geometry" />
        </mxCell>
        <mxCell id="wF_m7cPFY8NTbSpeQ1_s-108" value="st.ScoreSub1 + st.ScoreSub2 + st.ScoreSub3 + st.ScoreSub4 + st.ScoreSub5 ) / 5" style="whiteSpace=wrap;html=1;" vertex="1" parent="1">
          <mxGeometry x="1585.75" y="120" width="329.5" height="60" as="geometry" />
        </mxCell>
        <mxCell id="wF_m7cPFY8NTbSpeQ1_s-113" value="" style="edgeStyle=orthogonalEdgeStyle;rounded=0;orthogonalLoop=1;jettySize=auto;html=1;" edge="1" parent="1" source="wF_m7cPFY8NTbSpeQ1_s-110" target="wF_m7cPFY8NTbSpeQ1_s-112">
          <mxGeometry relative="1" as="geometry" />
        </mxCell>
        <mxCell id="wF_m7cPFY8NTbSpeQ1_s-110" value="ส่งค่า st.ScoreSub1 + st.ScoreSub2 + st.ScoreSub3 + st.ScoreSub4 + st.ScoreSub5 ) / 5" style="shape=parallelogram;perimeter=parallelogramPerimeter;whiteSpace=wrap;html=1;fixedSize=1;" vertex="1" parent="1">
          <mxGeometry x="1587.19" y="250" width="326.62" height="60" as="geometry" />
        </mxCell>
        <mxCell id="wF_m7cPFY8NTbSpeQ1_s-112" value="สิ้นสุด" style="ellipse;whiteSpace=wrap;html=1;" vertex="1" parent="1">
          <mxGeometry x="1710" y="380" width="81" height="50" as="geometry" />
        </mxCell>
      </root>
    </mxGraphModel>
  </diagram>
</mxfile>
